<svg xmlns="http://www.w3.org/2000/svg" width="192" height="192" viewBox="0 0 192 192">
  <rect width="192" height="192" rx="32" fill="#2563eb"/>
  <path d="M96 40c-30.928 0-56 25.072-56 56s25.072 56 56 56 56-25.072 56-56-25.072-56-56-56zm0 16c22.091 0 40 17.909 40 40s-17.909 40-40 40-40-17.909-40-40 17.909-40 40-40z" fill="white" opacity="0.3"/>
  <path d="M96 56c-22.091 0-40 17.909-40 40h16c0-13.255 10.745-24 24-24s24 10.745 24 24h16c0-22.091-17.909-40-40-40z" fill="white"/>
  <rect x="88" y="92" width="16" height="28" rx="4" fill="white"/>
  <text x="96" y="156" text-anchor="middle" font-family="system-ui" font-size="20" font-weight="700" fill="white">OAuth2</text>
</svg>
